<svg xmlns="http://www.w3.org/2000/svg" width="50" height="49"><svg width="50" height="49" xmlns="http://www.w3.org/2000/svg" fill="none"><ellipse cx="24" cy="24.5" rx="24" ry="24.5" fill="#fff" id="SvgjsEllipse1006"/><path id="SvgjsPath1005" fill="#D41443" d="M18.514.877C6.943 4.381 0 13.492 0 25.005c0 9.41 4.83 17.62 12.779 21.725 4.125 2.102 4.73.6.905-2.303-2.716-2.202-3.22-3.203-3.22-6.908 0-2.603-.603-4.705-1.509-5.506-1.81-1.502-2.012-5.406-.2-6.808.703-.6 1.408-2.603 1.508-4.405.504-6.607 7.648-12.814 14.792-12.814S39.343 14.193 39.846 20.8c.1 1.802.805 3.805 1.51 4.405 1.81 1.402 1.61 5.306-.202 6.808-.905.801-1.51 2.903-1.51 5.506 0 3.705-.502 4.706-3.219 6.908-4.226 3.304-3.019 4.506 1.71 1.602 6.642-4.105 11.572-13.015 11.572-20.924 0-15.818-16.502-28.633-31.193-24.228z"/><path id="SvgjsPath1004" fill="#D41443" d="M19.768 13.814c-1.811.801-3.32 1.802-3.32 2.403 0 1.101 5.433 3.104 8.552 3.104 3.12 0 8.553-2.003 8.553-3.104 0-1.201-6.239-3.904-8.754-3.904-1.006.1-3.32.7-5.031 1.501z" stroke="null"/><path d="M14.365 19.641c-.302.4-.603 1.702-.603 3.003 0 2.303.1 2.303 11.571 2.303 11.47 0 11.571 0 11.571-2.303 0-3.403-.905-3.804-4.125-2.202-3.622 1.902-11.27 1.902-14.892 0-1.61-.801-3.12-1.101-3.522-.801z" fill="#D41443" id="SvgjsPath1003"/><path id="SvgjsPath1002" fill="#D41443" d="M11.777 28.194c-1.61 1.702 1.107 2.403 8.955 2.403h8.452v3.504c0 1.902.503 3.504 1.007 3.504.603 0 1.006-1.502 1.006-3.404 0-3.304.201-3.504 4.025-3.804 2.213-.2 4.025-.801 4.025-1.302 0-1.101-26.363-2.002-27.47-.9z"/><path id="SvgjsPath1001" fill="#D41443" d="M13.594 36.195c0 5.506 1.912 6.608 11.571 6.608 9.66 0 11.572-1.102 11.572-6.608 0-2.403-.503-3.404-1.51-3.404-.905 0-1.509.901-1.509 2.403 0 5.606-7.647 6.107-8.754.6-.503-2.903-.805-3.003-5.937-3.003h-5.433v3.404z"/><path d="M19.64 46.596c.605 3.204 10.868 2.903 10.868-.2 0-1.101-1.308-1.502-5.635-1.502-4.73 0-5.534.3-5.232 1.702z" fill="#D41443" id="SvgjsPath1000"/></svg><style>@media (prefers-color-scheme:light){:root{filter:none}}</style></svg>